<?xml version="1.0" encoding="UTF-8" standalone="no"?>
<!-- Created with Inkscape (http://www.inkscape.org/) -->

<svg
   xmlns:dc="http://purl.org/dc/elements/1.1/"
   xmlns:cc="http://creativecommons.org/ns#"
   xmlns:rdf="http://www.w3.org/1999/02/22-rdf-syntax-ns#"
   xmlns:svg="http://www.w3.org/2000/svg"
   xmlns="http://www.w3.org/2000/svg"
   xmlns:xlink="http://www.w3.org/1999/xlink"
   xmlns:sodipodi="http://sodipodi.sourceforge.net/DTD/sodipodi-0.dtd"
   xmlns:inkscape="http://www.inkscape.org/namespaces/inkscape"
   inkscape:version="0.91 r13725"
   version="1.1"
   id="svg2"
   viewBox="0 0 602.25878 505.29172"
   height="142.60455mm"
   width="169.97081mm"
   sodipodi:docname="logoboite.svg"
   inkscape:export-filename="/home/mylene/Documents/Le LAB/Com/charte graph/logov2"
   inkscape:export-xdpi="302"
   inkscape:export-ydpi="302">
  <sodipodi:namedview
     inkscape:window-maximized="1"
     inkscape:window-y="27"
     inkscape:window-x="0"
     inkscape:window-height="845"
     inkscape:window-width="1600"
     inkscape:guide-bbox="true"
     showguides="true"
     showgrid="false"
     inkscape:current-layer="g6383"
     inkscape:document-units="px"
     inkscape:cy="179.50062"
     inkscape:cx="5.6039549"
     inkscape:zoom="0.61765806"
     inkscape:pageshadow="2"
     inkscape:pageopacity="0"
     borderopacity="1.0"
     bordercolor="#666666"
     pagecolor="#ffffff"
     id="base"
     inkscape:snap-bbox="true"
     inkscape:snap-bbox-edge-midpoints="true"
     inkscape:bbox-nodes="true"
     fit-margin-top="0"
     fit-margin-left="0"
     fit-margin-right="0"
     fit-margin-bottom="0"
     showborder="false">
    <sodipodi:guide
       id="guide4206"
       orientation="0,1"
       position="-25.514796,393.6521" />
    <sodipodi:guide
       id="guide4414"
       orientation="1,0"
       position="81.061823,691.6666" />
  </sodipodi:namedview>
  <defs
     id="defs4">
    <pattern
       inkscape:collect="always"
       xlink:href="#pattern4380"
       id="pattern5878"
       patternTransform="matrix(0.26733728,0,0,0.26733728,-9.7469731,23.467495)" />
    <pattern
       patternUnits="userSpaceOnUse"
       width="101.18351"
       height="101.18351"
       patternTransform="matrix(0.9263112,0,0,0.9263112,-9.7469749,-7.2938576)"
       id="pattern4380">
      <g
         id="g4373"
         transform="matrix(1.0795508,0,0,1.0795508,10.522355,7.8740898)">
        <g
           id="g4367">
          <rect
             y="-7.2938576"
             x="-9.7469749"
             height="46.863708"
             width="46.863708"
             id="rect4350"
             style="opacity:1;fill:#999999;fill-opacity:1;fill-rule:nonzero;stroke:none;stroke-width:19.2209568;stroke-linecap:butt;stroke-linejoin:miter;stroke-miterlimit:4;stroke-dasharray:none;stroke-opacity:1" />
          <rect
             style="opacity:1;fill:#999999;fill-opacity:1;fill-rule:nonzero;stroke:none;stroke-width:19.2209568;stroke-linecap:butt;stroke-linejoin:miter;stroke-miterlimit:4;stroke-dasharray:none;stroke-opacity:1"
             id="rect4361"
             width="46.863708"
             height="46.863708"
             x="37.116734"
             y="39.569851" />
          <rect
             y="39.569851"
             x="-9.7469749"
             height="46.863708"
             width="46.863708"
             id="rect4363"
             style="opacity:1;fill:#e6e6e6;fill-opacity:1;fill-rule:nonzero;stroke:none;stroke-width:19.2209568;stroke-linecap:butt;stroke-linejoin:miter;stroke-miterlimit:4;stroke-dasharray:none;stroke-opacity:1" />
          <rect
             style="opacity:1;fill:#cccccc;fill-opacity:1;fill-rule:nonzero;stroke:none;stroke-width:19.2209568;stroke-linecap:butt;stroke-linejoin:miter;stroke-miterlimit:4;stroke-dasharray:none;stroke-opacity:1"
             id="rect4365"
             width="46.863708"
             height="46.863708"
             x="37.116734"
             y="-7.2938576" />
        </g>
      </g>
    </pattern>
    <pattern
       patternUnits="userSpaceOnUse"
       width="111.30186"
       height="111.30186"
       patternTransform="translate(-42.440863,305.29061)"
       id="pattern5138">
      <use
         height="100%"
         width="100%"
         transform="translate(361.73642,-217.48009)"
         id="use5131"
         xlink:href="#g5124"
         y="0"
         x="0" />
    </pattern>
    <pattern
       patternUnits="userSpaceOnUse"
       width="94.217023"
       height="94.217023"
       patternTransform="translate(-191.0969,444.60864)"
       id="pattern5871">
      <use
         height="100%"
         width="100%"
         transform="translate(270.76089,-308.45563)"
         id="use5869"
         xlink:href="#g5124"
         y="0"
         x="0" />
    </pattern>
  </defs>
  <metadata
     id="metadata7">
    <rdf:RDF>
      <cc:Work
         rdf:about="">
        <dc:format>image/svg+xml</dc:format>
        <dc:type
           rdf:resource="http://purl.org/dc/dcmitype/StillImage" />
        <dc:title></dc:title>
      </cc:Work>
    </rdf:RDF>
  </metadata>
  <g
     inkscape:groupmode="layer"
     id="layer4"
     inkscape:label="damier"
     sodipodi:insensitive="true"
     style="display:none"
     transform="translate(-74.086225,-65.008302)">
    <g
       id="g5124"
       transform="matrix(0.23021626,0,0,0.23021626,-387.48438,250.98452)"
       style="stroke:none">
      <g
         id="g5118"
         style="stroke:none">
        <rect
           style="opacity:1;fill:#808080;fill-opacity:1;fill-rule:nonzero;stroke:none;stroke-width:20.75;stroke-linecap:butt;stroke-linejoin:miter;stroke-miterlimit:4;stroke-dasharray:none;stroke-opacity:1"
           id="rect5110"
           width="86.568115"
           height="86.568115"
           x="-125.91726"
           y="249.63968" />
        <rect
           y="336.20779"
           x="-39.349144"
           height="86.568115"
           width="86.568115"
           id="rect5112"
           style="opacity:1;fill:#808080;fill-opacity:1;fill-rule:nonzero;stroke:none;stroke-width:20.75;stroke-linecap:butt;stroke-linejoin:miter;stroke-miterlimit:4;stroke-dasharray:none;stroke-opacity:1" />
        <rect
           style="opacity:1;fill:#cccccc;fill-opacity:1;fill-rule:nonzero;stroke:none;stroke-width:20.75;stroke-linecap:butt;stroke-linejoin:miter;stroke-miterlimit:4;stroke-dasharray:none;stroke-opacity:1"
           id="rect5114"
           width="86.568115"
           height="86.568115"
           x="-39.349144"
           y="249.63968" />
        <rect
           y="336.20779"
           x="-125.91726"
           height="86.568115"
           width="86.568115"
           id="rect5116"
           style="opacity:1;fill:#cccccc;fill-opacity:1;fill-rule:nonzero;stroke:none;stroke-width:20.75;stroke-linecap:butt;stroke-linejoin:miter;stroke-miterlimit:4;stroke-dasharray:none;stroke-opacity:1" />
      </g>
    </g>
    <rect
       style="fill:url(#pattern5878);fill-opacity:1;stroke:none"
       width="817.15436"
       height="1309.3361"
       x="-40.864105"
       y="-172.52261"
       id="rect5874" />
  </g>
  <g
     id="layer1"
     inkscape:groupmode="layer"
     inkscape:label="Calque 1"
     transform="translate(-74.086225,-65.008302)">
    <flowRoot
       transform="matrix(1.3700846,0,0,1.3700846,-158.19241,-81.761715)"
       style="font-style:normal;font-variant:normal;font-weight:normal;font-stretch:normal;font-size:17.5px;line-height:125%;font-family:Quicksand;-inkscape-font-specification:'Quicksand, Normal';text-align:start;letter-spacing:0px;word-spacing:0px;writing-mode:lr-tb;text-anchor:start;fill:#000000;fill-opacity:1;stroke:none;stroke-width:1px;stroke-linecap:butt;stroke-linejoin:miter;stroke-opacity:1"
       id="flowRoot4136"
       xml:space="preserve"><flowRegion
         id="flowRegion4138"><rect
           y="107.36221"
           x="125"
           height="279.28571"
           width="522.14288"
           id="rect4140" /></flowRegion><flowPara
         style="font-style:normal;font-variant:normal;font-weight:bold;font-stretch:normal;font-size:90px;line-height:125%;font-family:Quicksand;-inkscape-font-specification:'Quicksand, Bold';text-align:start;writing-mode:lr-tb;text-anchor:start"
         id="flowPara4142" /></flowRoot>    <g
       id="flowRoot4144"
       style="font-style:normal;font-variant:normal;font-weight:normal;font-stretch:normal;font-size:17.5px;line-height:125%;font-family:Quicksand;-inkscape-font-specification:'Quicksand, Normal';text-align:start;letter-spacing:0px;word-spacing:0px;writing-mode:lr-tb;text-anchor:start;fill:#6c5d53;fill-opacity:1;stroke:none;stroke-width:1px;stroke-linecap:butt;stroke-linejoin:miter;stroke-opacity:1"
       inkscape:export-xdpi="302"
       inkscape:export-ydpi="302">
      <g
         transform="matrix(1.9053584,0,0,1.9053584,-146.76343,-386.32297)"
         inkscape:export-ydpi="302"
         inkscape:export-xdpi="302"
         id="g4266" />
      <g
         style="stroke:#d6bd37;stroke-opacity:0.38109759"
         id="box"
         transform="matrix(21.131881,0,0,20.374659,116.35008,75.195721)"
         inkscape:export-xdpi="90"
         inkscape:export-ydpi="90">
        <path
           inkscape:connector-curvature="0"
           d="M 8.7399999,0 C 9.55,0 10,0.54000002 10,1.6200001 l 0,0.18 -10,0 0,-0.18 C 0,0.54000002 0.45000002,0 1.2600001,0 Z"
           id="box-inner-close-tab"
           style="fill:none;stroke:#ffffff;stroke-width:1.00000882;stroke-miterlimit:4;stroke-dasharray:none;stroke-opacity:1" />
        <path
           inkscape:connector-curvature="0"
           d="m 0,1.8000001 10,0 0,3 -10,0 z"
           id="box-upper-close-tab"
           style="fill:none;stroke:#ffffff;stroke-width:1.00000882;stroke-miterlimit:4;stroke-dasharray:none;stroke-opacity:1" />
        <path
           inkscape:connector-curvature="0"
           d="m 10,1.8000001 2.4,0 L 13,4.2 l 0,0.6000001 -3,0 z"
           id="box-upper-right-tab"
           style="fill:none;stroke:#ffffff;stroke-width:1.00000882;stroke-miterlimit:4;stroke-dasharray:none;stroke-opacity:1" />
        <path
           inkscape:connector-curvature="0"
           d="m 26,1.8000001 -2.4,0 L 23,4.2 l 0,0.6000001 3,0 z"
           id="box-upper-left-tab"
           style="fill:none;stroke:#ffffff;stroke-width:1.00000882;stroke-miterlimit:4;stroke-dasharray:none;stroke-opacity:1" />
        <path
           inkscape:connector-curvature="0"
           d="m 0,4.8000001 -1.5,0.75 L -1.5,19.05 0,19.8 Z"
           id="box-left-tab"
           style="fill:none;stroke:#ffffff;stroke-width:1.00000882;stroke-miterlimit:4;stroke-dasharray:none;stroke-opacity:1" />
        <path
           inkscape:connector-curvature="0"
           d="m 0,4.8000001 10,0 L 10,19.8 0,19.8 Z"
           id="box-front"
           style="fill:none;stroke:#ffffff;stroke-width:1.00000882;stroke-miterlimit:4;stroke-dasharray:none;stroke-opacity:1" />
        <path
           inkscape:connector-curvature="0"
           d="m 10,4.8000001 3,0 L 13,19.8 l -3,0 z"
           id="box-right"
           style="fill:none;stroke:#ffffff;stroke-width:1.00000882;stroke-miterlimit:4;stroke-dasharray:none;stroke-opacity:1" />
        <path
           inkscape:connector-curvature="0"
           d="m 13,4.8000001 10,0 L 23,19.8 l -10,0 z"
           id="box-back"
           style="fill:none;stroke:#ffffff;stroke-width:1.00000882;stroke-miterlimit:4;stroke-dasharray:none;stroke-opacity:1" />
        <path
           inkscape:connector-curvature="0"
           d="m 23,4.8000001 3,0 L 26,19.8 l -3,0 z"
           id="box-left"
           style="fill:none;stroke:#ffffff;stroke-width:1.00000882;stroke-miterlimit:4;stroke-dasharray:none;stroke-opacity:1" />
        <path
           inkscape:connector-curvature="0"
           d="m 0,19.8 0,1.5 10,0 0,-1.5 z"
           id="box-bottom-front-tab"
           style="fill:none;stroke:#ffffff;stroke-width:1.00000882;stroke-miterlimit:4;stroke-dasharray:none;stroke-opacity:1" />
        <path
           inkscape:connector-curvature="0"
           d="m 10,19.8 0,4 3,0 0,-4 z"
           id="box-bottom-right-tab"
           style="fill:none;stroke:#ffffff;stroke-width:1.00000882;stroke-miterlimit:4;stroke-dasharray:none;stroke-opacity:1" />
        <path
           inkscape:connector-curvature="0"
           d="m 13,19.8 0,1.5 10,0 0,-1.5 z"
           id="box-bottom-back-tab"
           style="fill:none;stroke:#ffffff;stroke-width:1.00000882;stroke-miterlimit:4;stroke-dasharray:none;stroke-opacity:1" />
        <path
           inkscape:connector-curvature="0"
           d="m 23,19.8 0,4 3,0 0,-4 z"
           id="box-bottom-left-tab"
           style="fill:none;stroke:#ffffff;stroke-width:1.00000882;stroke-miterlimit:4;stroke-dasharray:none;stroke-opacity:1" />
      </g>
      <g
         id="g6390"
         transform="translate(12.719564,-11.899455)"
         style="stroke-width:20.75;stroke-miterlimit:4;stroke-dasharray:none">
        <g
           id="g6383"
           style="stroke-width:20.75;stroke-miterlimit:4;stroke-dasharray:none">
          <path
             d="m 164.66438,345.70186 c 0,5.65892 4.45854,10.28894 10.11745,10.28894 l 35.32535,0 c 4.45854,0 8.23117,-3.77261 8.23117,-8.23115 0,-4.45854 -3.77263,-8.05966 -8.23115,-8.05966 l -25.55088,0 0,-109.74865 25.55088,0 c 4.45852,0 8.23115,-3.60113 8.23115,-8.05966 0,-4.45854 -3.77263,-8.23115 -8.23115,-8.23115 l -35.32537,0 c -5.65891,0 -10.11745,4.63002 -10.11745,10.28893 l 0,121.7524 z"
             style="font-style:normal;font-variant:normal;font-weight:normal;font-stretch:normal;font-size:medium;line-height:125%;font-family:Quicksand;-inkscape-font-specification:'Quicksand, Normal';text-align:start;letter-spacing:0px;word-spacing:0px;writing-mode:lr-tb;text-anchor:start;fill:#b2aa8e;fill-opacity:1;stroke:none;stroke-width:20.75;stroke-linecap:butt;stroke-linejoin:miter;stroke-miterlimit:4;stroke-dasharray:none;stroke-opacity:1"
             id="path4169-1"
             inkscape:connector-curvature="0"
             inkscape:export-xdpi="90"
             inkscape:export-ydpi="90" />
          <path
             d="m 239.2818,344.58588 c 0,0 0,0 0.17148,0 0,0 0,0 0.34297,0 l 55.56025,0 c 4.97298,0 9.43152,-4.28706 9.43152,-9.43153 0,-5.31595 -4.45854,-9.603 -9.43152,-9.603 l -46.4717,0 0,-91.57153 c 0,-5.14447 -4.28705,-9.43152 -9.603,-9.43152 -5.31595,0 -9.43153,4.28705 -9.43153,9.43152 l 0,101.17453 c 0,5.14447 4.11558,9.43153 9.43153,9.43153 z"
             style="font-style:normal;font-variant:normal;font-weight:normal;font-stretch:normal;font-size:medium;line-height:125%;font-family:Quicksand;-inkscape-font-specification:'Quicksand, Normal';text-align:start;letter-spacing:0px;word-spacing:0px;writing-mode:lr-tb;text-anchor:start;fill:#21a0a0;fill-opacity:1;stroke:none;stroke-width:20.75;stroke-linecap:butt;stroke-linejoin:miter;stroke-miterlimit:4;stroke-dasharray:none;stroke-opacity:1"
             id="path4171-6"
             inkscape:connector-curvature="0"
             inkscape:export-xdpi="90"
             inkscape:export-ydpi="90" />
          <path
             d="m 395.93084,338.584 c 1.37186,3.77261 4.97298,6.00188 8.74559,6.00188 1.20038,0 2.40076,-0.17149 3.25817,-0.51445 4.97298,-1.8863 7.37373,-7.37374 5.65891,-12.34672 L 375.69593,230.72166 c -1.54334,-3.77261 -5.14446,-6.17336 -9.08856,-6.00188 -3.77261,-0.17148 -7.54522,2.22927 -9.08856,6.00188 l -37.89757,101.00305 c -1.71483,4.97298 0.68592,10.46042 5.65891,12.34672 1.02889,0.34296 2.05779,0.51445 3.25816,0.51445 3.77261,0 7.37374,-2.22927 8.91708,-6.00188 l 8.40263,-22.2927 41.67019,0 8.40263,22.2927 z m -43.21353,-41.15574 13.89006,-36.86869 13.89007,36.86869 -27.78013,0 z"
             style="font-style:normal;font-variant:normal;font-weight:normal;font-stretch:normal;font-size:medium;line-height:125%;font-family:Quicksand;-inkscape-font-specification:'Quicksand, Normal';text-align:start;letter-spacing:0px;word-spacing:0px;writing-mode:lr-tb;text-anchor:start;fill:#21a0a0;fill-opacity:1;stroke:none;stroke-width:20.75;stroke-linecap:butt;stroke-linejoin:miter;stroke-miterlimit:4;stroke-dasharray:none;stroke-opacity:1"
             id="path4173-8"
             inkscape:connector-curvature="0"
             inkscape:export-xdpi="90"
             inkscape:export-ydpi="90" />
          <path
             d="m 446.60116,344.58588 c 0.17148,0 0.17148,-0.17149 0.51445,-0.17149 0,0 0,0.17149 0.17148,0.17149 l 30.35236,0 c 20.2349,0 36.6972,-16.4623 36.6972,-36.86869 0,-13.03265 -7.03077,-24.52196 -17.31971,-31.03829 4.11558,-5.48743 6.51633,-12.17524 6.51633,-19.54897 0,-18.00564 -14.57599,-32.58163 -32.58163,-32.58163 l -23.66455,0 c -0.17148,0 -0.17148,0 -0.17148,0 -0.34297,0 -0.34297,0 -0.51445,0 -5.14447,0 -9.43152,4.11557 -9.43152,9.43152 l 0,101.17453 c 0,5.14447 4.28705,9.43153 9.43152,9.43153 z m 9.60301,-101.00305 14.74747,0 c 7.54522,0 13.5471,6.00188 13.5471,13.5471 0,7.54522 -6.00188,13.89006 -13.5471,13.89006 l -14.74747,0 0,-27.43716 z m 0,46.47169 21.43528,0 c 9.77449,0.17148 17.66267,7.88818 17.66267,17.66267 0,9.94597 -7.88818,17.66267 -17.66267,17.83416 l -21.43528,0 0,-35.49683 z"
             style="font-style:normal;font-variant:normal;font-weight:normal;font-stretch:normal;font-size:medium;line-height:125%;font-family:Quicksand;-inkscape-font-specification:'Quicksand, Normal';text-align:start;letter-spacing:0px;word-spacing:0px;writing-mode:lr-tb;text-anchor:start;fill:#21a0a0;fill-opacity:1;stroke:none;stroke-width:20.75;stroke-linecap:butt;stroke-linejoin:miter;stroke-miterlimit:4;stroke-dasharray:none;stroke-opacity:1"
             id="path4175-7"
             inkscape:connector-curvature="0"
             inkscape:export-xdpi="90"
             inkscape:export-ydpi="90" />
          <path
             d="m 563.50905,225.31044 c 0,-5.65891 -4.63002,-10.28893 -10.28893,-10.28893 l -35.32535,0 c -4.45853,0 -8.05966,3.77261 -8.05966,8.23114 0,4.45854 3.60113,8.05967 8.05966,8.05967 l 25.72234,0 0,109.74864 -25.72234,0 c -4.45853,0 -8.05966,3.60113 -8.05966,8.05967 0,4.45854 3.60113,8.23115 8.05966,8.23115 l 35.32535,0 c 5.65891,0 10.28893,-4.63002 10.28893,-10.28894 l 0,-121.7524 z"
             style="font-style:normal;font-variant:normal;font-weight:normal;font-stretch:normal;font-size:medium;line-height:125%;font-family:Quicksand;-inkscape-font-specification:'Quicksand, Normal';text-align:start;letter-spacing:0px;word-spacing:0px;writing-mode:lr-tb;text-anchor:start;fill:#b2aa8e;fill-opacity:1;stroke:none;stroke-width:20.75;stroke-linecap:butt;stroke-linejoin:miter;stroke-miterlimit:4;stroke-dasharray:none;stroke-opacity:1"
             id="path4177-3"
             inkscape:connector-curvature="0"
             inkscape:export-xdpi="90"
             inkscape:export-ydpi="90" />
        </g>
        <g
           id="g4398"
           transform="matrix(1.0795508,0,0,1.0795508,-147.22691,255.92209)"
           style="stroke-width:19.2209568;stroke-miterlimit:4;stroke-dasharray:none"
           inkscape:export-xdpi="90"
           inkscape:export-ydpi="90">
          <g
             id="g4530"
             inkscape:label="WireframeSphere"
             transform="matrix(2.927076,0,0,2.927076,473.39459,81.298309)"
             style="stroke-width:6.566607;stroke-miterlimit:4;stroke-dasharray:none" />
          <path
             id="path4179"
             style="fill:#7a306c;fill-opacity:1;stroke-width:19.2209568;stroke-miterlimit:4;stroke-dasharray:none"
             d="m 332.99348,155.91681 -0.9,0 0,-36.36 c 0,-0.09 0,-0.18 0,-0.27 0,-0.18 -0.09,-0.27 -0.09,-0.45 0,-0.27 0,-0.36 -0.09,-0.54 0,-0.09 -0.09,-0.27 -0.09,-0.36 -0.09,-0.27 -0.09,-0.36 -0.18,-0.54 -0.09,-0.09 -0.18001,-0.27 -0.18001,-0.36 -0.18,-0.27 -0.26999,-0.36 -0.36,-0.45 -0.09,-0.09 -0.18,-0.27 -0.27,-0.36 -0.09,-0.09 -0.18,-0.18 -0.36,-0.36 0,-0.09 -0.18,-0.18 -0.26999,-0.18 0,-0.09 -0.09,-0.09 -0.09,-0.09 -0.18,-0.09 -0.27,-0.18 -0.45,-0.27 -0.09,-0.09 -0.26999,-0.18 -0.45,-0.36 -0.09,0 -0.27,-0.09 -0.36,-0.09 -0.18,-0.09 -0.45,-0.09 -0.54,-0.18 -0.17999,0 -0.27,0 -0.45,-0.09 -0.09,0 -0.35999,0 -0.53999,0 -0.09,0 -0.09,0 -0.18,0 -0.09,0 -0.18001,0 -0.18001,0 -0.18,0 -0.44999,0 -0.63,0 -0.09,0.09 -0.27,0.09 -0.36,0.09 -0.26999,0.09 -0.45,0.09 -0.54,0.18 -0.17999,0 -0.27,0.09 -0.35999,0.27 -0.27001,0 -0.36001,0.09 -0.54001,0.18 -0.09,0.09 -0.26999,0.18 -0.36,0.27 -0.09,0.09 -0.18,0.18 -0.45,0.27 -0.09,0.18 -0.18,0.27 -0.26999,0.36 -0.09,0.09 -0.09,0.18 -0.18001,0.18 l -33.3,41.4 c -1.70999,2.16 -1.44,5.22 0.81,6.93 0.9,0.81 1.98001,1.08 3.06,1.08 0,0 0.09,0 0.09,0 0,0 0.09,0 0.09,0 l 28.17,0 0,6.84 c 0,2.79 2.16,4.95 4.95001,4.95 2.78999,0 4.94999,-2.16 4.94999,-4.95 l 0,-6.84 0.9,0 c 2.79,0 5.04,-2.16 5.04,-4.95 0,-2.7 -2.25,-4.95 -5.04,-4.95 z m -10.8,0 -17.91,0 17.91,-22.23 0,22.23 z"
             inkscape:connector-curvature="0" />
          <path
             id="path4181"
             style="fill:#21a0a0;fill-opacity:1;stroke-width:19.2209568;stroke-miterlimit:4;stroke-dasharray:none"
             d="m 402.29911,114.60681 c 0,0 0,0 0,0 0,0 0,0 0,0 -0.09,0 -0.09,0 -0.09,0 -1.62,0 -3.06,0.72 -4.05,2.07 l -17.91,24.84 -17.91,-24.84 c -0.9,-1.35 -2.52,-2.07 -3.96,-2.07 -0.18,0 -0.18,0 -0.27,0 -2.7,0 -4.95,2.25 -4.95,4.95 l 0,53.1 c 0,2.7 2.25,4.95 4.95,4.95 2.79,0 5.04,-2.25 5.04,-4.95 l 0,-37.89 12.87,18 c 0.99,1.35 2.52,2.07 4.14,2.07 0,0 0.09,0 0.09,0 0,0 0.09,0 0.09,0 1.62,0 3.06,-0.72 4.05,-2.07 l 12.96,-18 0,37.89 c 0,2.7 2.16,4.95 4.95,4.95 2.7,0 5.04,-2.25 5.04,-4.95 l 0,-53.1 c 0,-2.7 -2.34,-4.86 -5.04,-4.95 z"
             inkscape:connector-curvature="0" />
          <path
             id="path4183"
             style="fill:#21a0a0;fill-opacity:1;stroke-width:19.2209568;stroke-miterlimit:4;stroke-dasharray:none"
             d="m 466.17661,137.46681 c 0,-2.7 -2.16,-4.86 -4.77,-4.86 -2.34,0 -4.14,1.71 -4.68,3.96 -3.42,-2.43 -7.47,-3.96 -11.97,-3.96 -6.12,0 -11.43,2.61 -15.3,6.75 -3.87,4.05 -6.12,9.63 -6.12,15.84 0,6.12 2.25,11.7 6.12,15.84 3.87,4.05 9.18,6.57 15.3,6.57 0,0 0,0 0,0 4.5,0 8.55,-1.44 11.97,-3.87 0.54,2.16 2.34,3.87 4.68,3.87 2.61,0 4.77,-2.16 4.77,-4.77 l 0,-17.64 c 0,0 0,0 0,0 0,0 0,0 0,0 l 0,-17.73 z m -13.05,27 c -2.16,2.25 -5.22,3.51 -8.37,3.51 -3.24,0 -6.3,-1.26 -8.37,-3.51 -2.16,-2.34 -3.42,-5.58 -3.42,-9.27 0,-3.78 1.26,-7.02 3.42,-9.27 2.07,-2.43 5.13,-3.69 8.37,-3.69 3.15,0 6.21,1.26 8.37,3.69 2.16,2.25 3.51,5.49 3.51,9.27 0,3.69 -1.35,6.93 -3.51,9.27 z"
             inkscape:connector-curvature="0" />
          <path
             id="path4185"
             style="fill:#21a0a0;fill-opacity:1;stroke-width:19.2209568;stroke-miterlimit:4;stroke-dasharray:none"
             d="m 488.77927,177.60681 c 2.79,0 5.04,-2.25 5.04,-4.95 l 0,-7.92 4.95,-4.95 13.23,16.02 c 0.9,1.17 2.34,1.8 3.78,1.8 1.08,0 2.25,-0.36 3.15,-1.17 2.16,-1.71 2.43,-4.86 0.72,-7.02 l -13.86,-16.65 13.5,-13.5 c 1.98,-1.89 1.98,-5.04 0,-7.02 -1.89,-1.89 -5.13,-1.89 -7.02,0 l -18.45,18.45 0,-31.14 c 0,-2.7 -2.25,-4.95 -5.04,-4.95 -2.79,0 -4.95,2.25 -4.95,4.95 l 0,53.1 c 0,2.7 2.16,4.95 4.95,4.95 z"
             inkscape:connector-curvature="0" />
          <path
             id="path4187"
             style="fill:#21a0a0;fill-opacity:1;stroke-width:19.2209568;stroke-miterlimit:4;stroke-dasharray:none"
             d="m 550.80333,177.60681 c 6.39,0 11.7,-1.89 16.11,-5.94 2.07,-1.89 1.17,-4.59 0,-5.85 -1.17,-1.44 -4.86,-1.71 -6.75,0.27 -2.25,1.71 -6.12,2.52 -9.36,2.25 -3.15,-0.27 -6.75,-1.89 -8.64,-4.05 -1.62,-1.53 -2.61,-3.87 -3.06,-5.94 l 28.62,0 c 2.52,0 4.41,-1.44 4.68,-3.6 0.09,-0.18 0.09,-0.63 0.09,-0.81 0,0 0,0 0,0 0,0 0,0 0,0 0,-0.18 0,-0.36 0,-0.45 -0.72,-12.15 -9.99,-20.88 -21.69,-20.88 -12.33,0 -21.87,10.26 -21.96,22.5 0.09,12.24 9.63,22.41 21.96,22.5 z m 0,-36.45 c 7.83,0.63 12.42,5.94 13.32,9.54 l -25.47,0 c 0.72,-3.69 4.5,-9.18 12.15,-9.54 z"
             inkscape:connector-curvature="0" />
          <path
             id="path4189"
             style="fill:#21a0a0;fill-opacity:1;stroke-width:19.2209568;stroke-miterlimit:4;stroke-dasharray:none"
             d="m 607.85349,132.69681 c -4.5,-0.09 -8.37,1.53 -11.34,3.51 -0.63,0.45 -1.35001,1.17 -1.89,1.8 l 0,-0.63 c 0,-2.61 -2.25,-4.68 -4.95001,-4.68 -2.61,0 -4.77,2.07 -4.77,4.68 l 0,35.46 c 0,2.61 2.16,4.77 4.77,4.77 2.70001,0 4.95001,-2.16 4.95001,-4.77 l 0,-17.1 c 0.44999,-1.26 1.52999,-4.68 3.68999,-7.56 1.08001,-1.71 2.43001,-3.24 4.14,-4.32 1.53001,-1.17 3.33,-1.71 5.40001,-1.71 2.69999,0 4.77,-2.25 4.77,-4.77 0,-2.61 -2.07001,-4.68 -4.77,-4.68 z"
             inkscape:connector-curvature="0" />
          <path
             id="path4191"
             style="fill:#21a0a0;fill-opacity:1;stroke-width:19.2209568;stroke-miterlimit:4;stroke-dasharray:none"
             d="m 622.92427,171.39681 c 3.6,2.88 9,6.12 16.02,6.21 4.41,0 8.46,-1.35 11.7,-3.6 3.24,-2.34 5.67,-6.03 5.67,-10.44 0,-2.07 -0.63,-4.14 -1.71,-5.94 -1.53,-2.52 -3.96,-4.23 -6.39,-5.31 -2.61,-1.26 -5.4,-2.07 -8.37,-2.61 l -0.09,0 -0.09,-0.09 c -3.06,-0.54 -5.4,-1.35 -6.57,-2.16 -0.63,-0.36 -0.9,-0.72 -0.99,-0.9 -0.18,-0.27 -0.18,-0.36 -0.18,-0.72 0,-0.45 0.27,-1.26 1.44,-2.07 1.17,-0.9 3.15,-1.62 5.4,-1.62 2.88,0 5.4,1.44 8.28,3.33 2.25,1.53 5.22,0.9 6.66,-1.26 1.35,-2.25 0.72,-5.22 -1.44,-6.66 -2.88,-1.98 -7.29,-4.95 -13.5,-4.95 -4.14,0 -7.92,1.17 -11.07,3.33 -2.97,2.25 -5.31,5.76 -5.31,9.9 0,2.07 0.54,4.05 1.53,5.67 1.62,2.43 3.78,4.05 6.21,5.22 2.34,1.08 5.04,1.8 7.83,2.34 l 0.09,0 c 3.24,0.63 5.94,1.62 7.2,2.52 0.72,0.45 1.08,0.81 1.17,1.08 0.18,0.27 0.27,0.45 0.27,0.9 0,0.72 -0.36,1.62 -1.62,2.7 -1.44,0.9 -3.69,1.71 -6.12,1.71 -3.51,0.09 -7.56,-1.98 -9.9,-3.96 -1.98,-1.71 -5.13,-1.44 -6.75,0.72 -1.62,1.98 -1.35,5.04 0.63,6.66 z"
             inkscape:connector-curvature="0" />
        </g>
      </g>
    </g>
  </g>
</svg>
