<?xml version="1.0" encoding="UTF-8" standalone="no"?>
<!-- Created with Inkscape (http://www.inkscape.org/) -->

<svg
   xmlns:dc="http://purl.org/dc/elements/1.1/"
   xmlns:cc="http://creativecommons.org/ns#"
   xmlns:rdf="http://www.w3.org/1999/02/22-rdf-syntax-ns#"
   xmlns:svg="http://www.w3.org/2000/svg"
   xmlns="http://www.w3.org/2000/svg"
   xmlns:sodipodi="http://sodipodi.sourceforge.net/DTD/sodipodi-0.dtd"
   xmlns:inkscape="http://www.inkscape.org/namespaces/inkscape"
   width="50"
   height="50"
   viewBox="0 0 50.000001 50.000001"
   id="svg4841"
   version="1.1"
   inkscape:version="0.92+devel unknown"
   sodipodi:docname="pictoliens.svg">
  <defs
     id="defs4843" />
  <sodipodi:namedview
     id="base"
     pagecolor="#ffffff"
     bordercolor="#666666"
     borderopacity="1.0"
     inkscape:pageopacity="0.0"
     inkscape:pageshadow="2"
     inkscape:zoom="3.959798"
     inkscape:cx="24.198213"
     inkscape:cy="29.029967"
     inkscape:document-units="px"
     inkscape:current-layer="g10485"
     showgrid="false"
     units="px"
     inkscape:window-width="1600"
     inkscape:window-height="836"
     inkscape:window-x="0"
     inkscape:window-y="0"
     inkscape:window-maximized="1"
     inkscape:document-rotation="0" />
  <metadata
     id="metadata4846">
    <rdf:RDF>
      <cc:Work
         rdf:about="">
        <dc:format>image/svg+xml</dc:format>
        <dc:type
           rdf:resource="http://purl.org/dc/dcmitype/StillImage" />
        <dc:title />
      </cc:Work>
    </rdf:RDF>
  </metadata>
  <g
     inkscape:label="Calque 1"
     inkscape:groupmode="layer"
     id="layer1"
     transform="translate(0,-1002.3622)">
    <g
       id="g10467"
       transform="matrix(0.66934944,0,0,0.66934944,66.367439,365.25671)"
       style="fill:#7a3060;fill-opacity:1;stroke:#ffffff;stroke-opacity:1">
      <g
         id="g10485"
         inkscape:export-xdpi="302"
         inkscape:export-ydpi="302">
        <g
           id="g827"
           transform="matrix(1.0855506,0,0,1.0855506,8.3343462,-81.497859)"
           inkscape:export-xdpi="72"
           inkscape:export-ydpi="72">
          <path
             style="fill:#21a0a0;fill-opacity:1;stroke:none;stroke-width:6.08949518;stroke-miterlimit:4;stroke-dasharray:none;stroke-opacity:1"
             d="m -61.002106,952.62789 a 36.418007,36.418007 0 0 1 36.418007,36.41801 36.418007,36.418007 0 0 1 -36.418007,36.418 36.418007,36.418007 0 0 1 -36.418007,-36.418 36.418007,36.418007 0 0 1 36.418007,-36.41801 z"
             id="path10410"
             inkscape:connector-curvature="0" />
          <path
             style="fill:#fffd15;fill-opacity:1;stroke:none;stroke-width:6.08949518;stroke-miterlimit:4;stroke-dasharray:none;stroke-opacity:1"
             inkscape:transform-center-x="0.91967378"
             inkscape:transform-center-y="0.083332654"
             d="m -62.252296,1001.1297 c -0.291159,0.4215 -9.720877,-1.40325 -10.205418,-1.23256 -0.484543,0.17066 -6.659308,7.49276 -7.152152,7.34746 -0.492828,-0.1453 -1.662568,-9.63228 -1.975462,-10.03805 -0.312895,-0.40577 -9.219853,-3.9862 -9.233286,-4.49746 -0.01344,-0.51126 8.693356,-4.54982 8.984515,-4.97129 0.291165,-0.42148 0.961124,-9.9564 1.445663,-10.12709 0.484544,-0.17072 7.035358,6.8204 7.528201,6.96568 0.492861,0.14517 9.813863,-2.16721 10.12676,-1.76145 0.312894,0.40577 -4.345269,8.76509 -4.331838,9.27635 0.01344,0.51126 5.10418,8.61701 4.813017,9.03841 z"
             id="path4262"
             inkscape:connector-curvature="0" />
          <path
             sodipodi:nodetypes="ccccc"
             inkscape:connector-curvature="0"
             id="path4272"
             d="m -68.559795,978.65019 c 2.067692,-2.88319 17.444046,-10.74305 31.095811,-7.4563 6.326734,0.93856 4.151051,4.75524 1.284988,4.93953 -7.449571,-2.70035 -20.491861,-2.56039 -31.181328,4.25455 -1.44398,0.37869 -2.394118,-0.9839 -1.199471,-1.73778 z"
             style="fill:#fffd15;fill-opacity:1;fill-rule:evenodd;stroke:none;stroke-width:1.49398804px;stroke-linecap:butt;stroke-linejoin:miter;stroke-opacity:1" />
          <path
             sodipodi:nodetypes="ccccc"
             inkscape:connector-curvature="0"
             id="path4272-3-6-7"
             d="m -56.4706,980.31844 c 9.022337,-0.75765 13.194737,0.19773 20.256213,1.98439 1.084012,0.19343 1.982278,3.46025 -0.417845,4.2132 -5.065119,-0.7051 -10.15375,-3.86073 -20.391062,-3.42468 -1.760857,0.0102 -1.301336,-2.43281 0.552694,-2.77291 z"
             style="fill:#fffd15;fill-opacity:1;fill-rule:evenodd;stroke:none;stroke-width:1.49398804px;stroke-linecap:butt;stroke-linejoin:miter;stroke-opacity:1" />
          <path
             sodipodi:nodetypes="ccccc"
             inkscape:connector-curvature="0"
             id="path4272-3-6-7-5"
             d="m -60.188797,987.96069 c 7.494421,-0.29699 10.9251,0.85845 16.726702,2.98202 0.892782,0.24594 1.549004,3.52543 -0.459498,4.15034 -4.176935,-0.95248 -8.307413,-4.33232 -16.799659,-4.41475 -1.458928,-0.0792 -1.012561,-2.47399 0.532455,-2.71761 z"
             style="fill:#fffd15;fill-opacity:1;fill-rule:evenodd;stroke:none;stroke-width:1.49398804px;stroke-linecap:butt;stroke-linejoin:miter;stroke-opacity:1" />
        </g>
      </g>
    </g>
  </g>
</svg>
