<?xml version="1.0" encoding="UTF-8" standalone="no"?>
<!-- Created with Inkscape (http://www.inkscape.org/) -->

<svg
   xmlns:dc="http://purl.org/dc/elements/1.1/"
   xmlns:cc="http://creativecommons.org/ns#"
   xmlns:rdf="http://www.w3.org/1999/02/22-rdf-syntax-ns#"
   xmlns:svg="http://www.w3.org/2000/svg"
   xmlns="http://www.w3.org/2000/svg"
   xmlns:sodipodi="http://sodipodi.sourceforge.net/DTD/sodipodi-0.dtd"
   xmlns:inkscape="http://www.inkscape.org/namespaces/inkscape"
   width="50"
   height="50"
   viewBox="0 0 50.000001 50.000001"
   id="svg4841"
   version="1.1"
   inkscape:version="0.92+devel unknown"
   sodipodi:docname="pictoTW.svg">
  <defs
     id="defs4843">
    <style
       id="style9198">.cls-1{fill:none;}.cls-2{fill:#1da1f2;}</style>
  </defs>
  <sodipodi:namedview
     id="base"
     pagecolor="#ffffff"
     bordercolor="#666666"
     borderopacity="1.0"
     inkscape:pageopacity="0.0"
     inkscape:pageshadow="2"
     inkscape:zoom="3.959798"
     inkscape:cx="1.232063"
     inkscape:cy="20.171979"
     inkscape:document-units="px"
     inkscape:current-layer="g10485"
     showgrid="false"
     units="px"
     inkscape:window-width="1600"
     inkscape:window-height="836"
     inkscape:window-x="0"
     inkscape:window-y="0"
     inkscape:window-maximized="1"
     showguides="true"
     inkscape:guide-bbox="true"
     inkscape:document-rotation="0">
    <sodipodi:guide
       position="28.125,27.946429"
       orientation="-0.70710678,0.70710678"
       id="guide6978"
       inkscape:locked="false" />
    <sodipodi:guide
       position="30.178572,19.910715"
       orientation="0.70710678,0.70710678"
       id="guide6980"
       inkscape:locked="false" />
    <sodipodi:guide
       position="-12.857143,36.160715"
       orientation="0,1"
       id="guide6982"
       inkscape:locked="false" />
    <sodipodi:guide
       position="-5.9821429,13.303572"
       orientation="0,1"
       id="guide6984"
       inkscape:locked="false" />
  </sodipodi:namedview>
  <metadata
     id="metadata4846">
    <rdf:RDF>
      <cc:Work
         rdf:about="">
        <dc:format>image/svg+xml</dc:format>
        <dc:type
           rdf:resource="http://purl.org/dc/dcmitype/StillImage" />
        <dc:title />
      </cc:Work>
    </rdf:RDF>
  </metadata>
  <g
     inkscape:label="Calque 1"
     inkscape:groupmode="layer"
     id="layer1"
     transform="translate(0,-1002.3622)">
    <g
       id="g10467"
       transform="matrix(0.66934944,0,0,0.66934944,66.367439,365.25671)"
       style="fill:#7a3060;fill-opacity:1;stroke:#ffffff;stroke-opacity:1">
      <g
         id="g10485"
         inkscape:export-xdpi="302"
         inkscape:export-ydpi="302">
        <g
           id="g9424"
           transform="matrix(1.0846936,0,0,1.0846936,8.2508572,-80.681457)"
           inkscape:export-xdpi="72"
           inkscape:export-ydpi="72">
          <path
             style="fill:#33ccff;fill-opacity:1;stroke:none;stroke-width:6.08949518;stroke-miterlimit:4;stroke-dasharray:none;stroke-opacity:1"
             d="m -61.002106,952.62789 a 36.418007,36.418007 0 0 1 36.418007,36.41801 36.418007,36.418007 0 0 1 -36.418007,36.418 36.418007,36.418007 0 0 1 -36.418007,-36.418 36.418007,36.418007 0 0 1 36.418007,-36.41801 z"
             id="path10410"
             inkscape:connector-curvature="0" />
          <g
             transform="matrix(0.18429674,0,0,0.18429674,-43.764361,966.27607)"
             id="g9290">
            <g
               id="Logo__x2014__FIXED">
              <g
                 transform="translate(-286.60545,-75.745727)"
                 id="g9279">
                <path
                   style="fill:#ffffff"
                   inkscape:connector-curvature="0"
                   class="st1"
                   d="m 153.6,301.6 c 94.3,0 145.9,-78.2 145.9,-145.9 0,-2.2 0,-4.4 -0.1,-6.6 10,-7.2 18.7,-16.3 25.6,-26.6 -9.2,4.1 -19.1,6.8 -29.5,8.1 10.6,-6.3 18.7,-16.4 22.6,-28.4 -9.9,5.9 -20.9,10.1 -32.6,12.4 -9.4,-10 -22.7,-16.2 -37.4,-16.2 -28.3,0 -51.3,23 -51.3,51.3 0,4 0.5,7.9 1.3,11.7 -42.6,-2.1 -80.4,-22.6 -105.7,-53.6 -4.4,7.6 -6.9,16.4 -6.9,25.8 0,17.8 9.1,33.5 22.8,42.7 -8.4,-0.3 -16.3,-2.6 -23.2,-6.4 0,0.2 0,0.4 0,0.7 0,24.8 17.7,45.6 41.1,50.3 -4.3,1.2 -8.8,1.8 -13.5,1.8 -3.3,0 -6.5,-0.3 -9.6,-0.9 6.5,20.4 25.5,35.2 47.9,35.6 -17.6,13.8 -39.7,22 -63.7,22 -4.1,0 -8.2,-0.2 -12.2,-0.7 22.6,14.4 49.6,22.9 78.5,22.9"
                   id="path9281" />
              </g>
            </g>
          </g>
        </g>
      </g>
    </g>
  </g>
  <style
     id="style9273"
     type="text/css">
	.st0{opacity:0.15;fill:#292F33;}
	.st1{fill:#FFFFFF;}
</style>
</svg>
